<svg width="57" height="56" fill="none" xmlns="http://www.w3.org/2000/svg"><rect opacity=".5" x="9.25" y="8.5" width="39" height="39" rx="3.5" stroke="#fff"/><circle cx="43.75" cy="12" r="1" fill="#fff"/><circle cx="39.75" cy="12" r="1" fill="#fff"/><circle cx="35.75" cy="12" r="1" fill="#fff"/><rect x="13.25" y="20.5" width="31" height="8" rx="1.5" stroke="url(#paint0_linear_10559_4083)"/><rect x="13.25" y="31.5" width="14" height="7" rx="1.5" stroke="#fff"/><rect x="30.25" y="31.5" width="14" height="7" rx="1.5" stroke="#fff"/><path opacity=".5" d="M13.25 47v-3a2 2 0 012-2h27a2 2 0 012 2v3" stroke="#fff"/><rect x="34.75" y="16" width="5" height="1" rx=".5" fill="#fff"/><rect x="31.75" y="16" width="2" height="1" rx=".5" fill="#fff"/><rect x="28.75" y="16" width="2" height="1" rx=".5" fill="#fff"/><rect x="12.75" y="16" width="5" height="1" rx=".5" fill="#fff"/><rect x="41.75" y="16" width="3" height="1" rx=".5" fill="#fff"/><defs><linearGradient id="paint0_linear_10559_4083" x1="12.75" y1="20" x2="44.673" y2="29.266" gradientUnits="userSpaceOnUse"><stop stop-color="#9935E8"/><stop offset="1" stop-color="#E85535"/></linearGradient></defs></svg>