<?xml version="1.0" standalone="no"?>
<!DOCTYPE svg PUBLIC "-//W3C//DTD SVG 20010904//EN"
 "http://www.w3.org/TR/2001/REC-SVG-20010904/DTD/svg10.dtd">
<svg version="1.0" xmlns="http://www.w3.org/2000/svg"
 width="1067.000000pt" height="1067.000000pt" viewBox="0 0 1067.000000 1067.000000"
 preserveAspectRatio="xMidYMid meet">
<metadata>
Created by potrace 1.14, written by Peter Selinger 2001-2017
</metadata>
<g transform="translate(0.000000,1067.000000) scale(0.100000,-0.100000)"
fill="#000000" stroke="none">
<path d="M5025 10444 c-22 -2 -96 -9 -165 -14 -381 -33 -822 -128 -1205 -260
-951 -329 -1816 -964 -2427 -1784 -545 -731 -885 -1599 -983 -2516 -22 -205
-31 -661 -16 -865 58 -817 301 -1595 709 -2275 704 -1174 1846 -2020 3162
-2344 416 -102 782 -146 1225 -146 364 0 661 29 995 96 1241 248 2324 930
3090 1944 491 651 813 1402 955 2227 74 433 85 1009 29 1463 -98 789 -378
1542 -817 2200 -196 294 -375 509 -646 781 -424 424 -829 715 -1356 974 -563
277 -1109 433 -1770 505 -98 11 -701 22 -780 14z m785 -328 c396 -44 732 -118
1075 -237 1021 -352 1910 -1057 2492 -1974 430 -678 676 -1432 734 -2250 14
-207 7 -610 -16 -815 -108 -981 -495 -1873 -1140 -2626 -331 -387 -742 -730
-1200 -1004 -162 -97 -500 -264 -663 -328 -420 -166 -864 -273 -1317 -318
-313 -31 -751 -22 -1085 22 -802 105 -1585 425 -2235 914 -211 159 -319 253
-520 455 -202 201 -297 310 -455 520 -949 1263 -1210 2924 -694 4426 500 1455
1686 2592 3169 3039 326 98 678 162 1035 190 163 12 659 4 820 -14z"/>
<path d="M5225 9690 c-177 -19 -254 -52 -621 -263 -909 -522 -1399 -806 -1401
-814 -1 -4 122 -78 275 -164 152 -86 532 -301 844 -478 l568 -322 166 91 166
90 1856 -1044 c1022 -574 1922 -1081 2000 -1125 l144 -81 -7 783 c-8 863 -8
873 -74 1042 -57 149 -198 328 -323 413 -25 17 -419 247 -875 510 -455 264
-1134 656 -1508 872 -374 216 -708 406 -743 422 -124 57 -317 85 -467 68z"/>
<path d="M2164 8015 c-363 -206 -614 -356 -637 -378 -46 -46 -86 -122 -71
-137 10 -10 3228 -1838 3244 -1843 7 -2 1153 960 1158 972 1 4 -695 394 -1547
867 l-1549 861 -598 -342z"/>
<path d="M1430 6253 l1 -778 1640 -930 c902 -511 1645 -930 1650 -930 8 0
1099 913 1099 920 0 5 -98 61 -2300 1310 -1103 625 -2024 1148 -2047 1162
l-43 25 0 -779z"/>
<path d="M5663 5901 l-582 -490 782 -434 c1211 -674 1451 -808 1460 -817 8 -7
-305 -280 -322 -280 -5 0 -185 101 -401 224 l-393 225 -31 -26 c-17 -14 -266
-224 -554 -466 -288 -242 -519 -443 -515 -447 19 -17 2233 -1270 2244 -1270
12 0 1216 690 1367 784 214 132 359 330 412 559 20 88 21 113 18 562 l-3 470
-28 80 c-51 147 -158 293 -276 379 -49 36 -2551 1425 -2579 1433 -11 2 -211
-159 -599 -486z"/>
<path d="M1435 4967 c-3 -7 -4 -355 -3 -773 4 -753 4 -760 26 -832 47 -153
145 -303 256 -391 66 -53 3243 -1887 3336 -1926 178 -75 387 -69 569 16 36 16
359 199 718 406 532 306 651 379 636 386 -10 6 -1071 607 -2358 1337 -1287
730 -2509 1421 -2715 1535 -206 114 -394 219 -417 232 -35 20 -44 22 -48 10z"/>
</g>
</svg>
