<?xml version="1.0" encoding="utf-8"?>
<!-- Generator: Adobe Illustrator 24.1.0, SVG Export Plug-In . SVG Version: 6.00 Build 0)  -->
<svg version="1.1" id="Layer_1" xmlns="http://www.w3.org/2000/svg" xmlns:xlink="http://www.w3.org/1999/xlink" x="0px" y="0px"
	 viewBox="0 0 258 78" style="enable-background:new 0 0 258 78;" xml:space="preserve">
<style type="text/css">
	.st0{fill-rule:evenodd;clip-rule:evenodd;fill:#FFFFFF;}
	.st1{fill:#FFFFFF;}
</style>
<g>
	<path className="st0" d="M45,39.1c0-0.1,0-0.2,0-0.3c0-0.1,0-0.2,0-0.3l0-0.3c0.3-2.2,2.1-3.8,4.4-3.8h0.1l0,0c2.4,0,4.4-2,4.4-4.4
		c0-2.5-2-4.4-4.4-4.4c-2.5,0-4.4,2-4.4,4.4c0,2.5-2,4.4-4.4,4.4c-2.5,0-4.4-2-4.4-4.4c0-2.5-2-4.4-4.4-4.4c-0.4,0-0.8,0.1-1.2,0.2
		c-1.4,0.4-2.5,1.4-3,2.8c-0.2,0.5-0.3,1-0.3,1.5v0c0,2.5-2,4.4-4.4,4.4c-2.5,0-4.4-2-4.4-4.4c0-2.5-2-4.4-4.4-4.4s-4.4,2-4.4,4.4
		c0,2.4,2,4.4,4.4,4.4l0,0h0.1c2.3,0,4.1,1.7,4.4,3.8l0,0.3c0,0.1,0,0.2,0,0.3v0c0,0,0,0.1,0,0.1l0,0v-0.1c0,0.1,0,0.2,0,0.3l0,0.3
		c-0.3,2.2-2.1,3.8-4.4,3.8h-0.1l0,0c-2.4,0-4.4,2-4.4,4.4c0,2.5,2,4.4,4.4,4.4c2.5,0,4.4-2,4.4-4.4c0-2.5,2-4.4,4.4-4.4
		c2.5,0,4.4,2,4.4,4.4c0,2.5,2,4.4,4.4,4.4c2.5,0,4.4-2,4.4-4.4c0-2.4-2-4.4-4.4-4.4l0,0h-0.1c-2.2,0-4.1-1.7-4.4-3.8l0-0.3
		c0-0.1,0-0.2,0-0.3v0.1l0,0c0,0,0-0.1,0-0.1v0c0-0.1,0-0.2,0-0.3l0-0.3c0.3-2.2,2.1-3.8,4.4-3.8c2.3,0,4.1,1.7,4.4,3.8l0,0.3
		c0,0.1,0,0.2,0,0.3c0,0,0,0,0,0h0c0,0,0,0,0,0.1c0,0.1,0,0.3,0,0.4c0,0.1,0,0.1,0,0.2c0,0.1,0,0.2,0,0.2c0,0.1,0,0.2,0.1,0.2
		c0,0.1,0,0.1,0,0.2c0,0.1,0.1,0.2,0.1,0.3c0,0,0,0.1,0.1,0.1c0,0.1,0.1,0.2,0.1,0.3c0,0,0,0.1,0.1,0.1c0.1,0.1,0.1,0.2,0.2,0.3
		c0,0,0,0,0,0.1c0.1,0.1,0.1,0.2,0.2,0.3c0,0,0,0,0,0c0.1,0.1,0.2,0.2,0.3,0.3c0,0,0,0,0,0c0.8,0.8,1.9,1.3,3.1,1.3l0,0h0.1
		c2.5,0,4.4,2,4.4,4.4c0,2.5,2,4.4,4.4,4.4c2.5,0,4.4-2,4.4-4.4c0-2.4-2-4.4-4.4-4.4l0,0h-0.1c-2.3,0-4.1-1.7-4.4-3.8L45,39.1z
		 M18.3,38.7L18.3,38.7c0,0,0,0.1,0,0.1L18.3,38.7z M27.2,38.8C27.2,38.8,27.2,38.7,27.2,38.8c0-0.1,0-0.1,0-0.1l0,0L27.2,38.8z
		 M44.9,38.9c0,0,0-0.1,0-0.1c0,0,0,0,0,0L44.9,38.9L44.9,38.9z M44.9,38.8L44.9,38.8L44.9,38.8z M44.9,38.8
		C44.9,38.8,44.9,38.8,44.9,38.8c0,0,0-0.1,0-0.1h0L44.9,38.8z M36,38.7L36,38.7C36.1,38.7,36.1,38.7,36,38.7c0,0.1,0,0.1,0,0.1
		L36,38.7z"/>
	<path className="st0" d="M25.9,24.2c1.7-1.7,1.7-4.6,0-6.3c-1.7-1.7-4.6-1.7-6.3,0c-1.7,1.7-1.7,4.6,0,6.3
		C21.3,25.9,24.1,25.9,25.9,24.2"/>
	<path className="st0" d="M34.9,15.2c1.7-1.7,1.7-4.6,0-6.3c-1.7-1.7-4.6-1.7-6.3,0c-1.7,1.7-1.7,4.6,0,6.3C30.3,17,33.1,17,34.9,15.2"
		/>
	<path className="st0" d="M37.4,17.8c-1.7,1.7-1.7,4.6,0,6.3c1.7,1.7,4.6,1.7,6.3,0c1.7-1.7,1.7-4.6,0-6.3C42,16,39.2,16,37.4,17.8"/>
	<path className="st0" d="M55.2,35.5c-1.7,1.7-1.7,4.6,0,6.3c1.7,1.7,4.6,1.7,6.3,0c1.7-1.7,1.7-4.6,0-6.3
		C59.7,33.8,56.9,33.8,55.2,35.5"/>
	<path className="st0" d="M37.4,53.3c-1.7,1.7-1.7,4.6,0,6.3c1.7,1.7,4.6,1.7,6.3,0c1.7-1.7,1.7-4.6,0-6.3C42,51.6,39.1,51.6,37.4,53.3"
		/>
	<path className="st0" d="M27.9,62.8c-1.7,1.7-1.7,4.6,0,6.3c1.7,1.7,4.6,1.7,6.3,0c1.7-1.7,1.7-4.6,0-6.3C32.5,61,29.7,61,27.9,62.8"/>
	<path className="st0" d="M7.6,42.5c1.7-1.7,1.7-4.6,0-6.3c-1.7-1.7-4.6-1.7-6.3,0c-1.7,1.7-1.7,4.6,0,6.3C3.1,44.2,5.9,44.2,7.6,42.5"
		/>
	<path className="st0" d="M19.1,53.9c-1.7,1.7-1.7,4.6,0,6.3c1.7,1.7,4.6,1.7,6.3,0c1.7-1.7,1.7-4.6,0-6.3
		C23.6,52.2,20.8,52.2,19.1,53.9"/>
	<polygon className="st1" points="73.2,7.9 96.2,7.9 96.2,13.9 79.8,13.9 79.8,20.1 94.2,20.1 94.2,26.1 79.8,26.1 79.8,32.5 96.4,32.5 
		96.4,38.4 73.2,38.4 	"/>
	<path className="st1" d="M101.9,25.4V7.9h6.7v17.3c0,5,2.5,7.5,6.6,7.5c4.1,0,6.6-2.5,6.6-7.3V7.9h6.7v17.2c0,9.3-5.2,13.8-13.4,13.8
		S101.9,34.3,101.9,25.4"/>
	<path className="st1" d="M135.4,7.9h14c3.9,0,6.9,1.1,8.9,3.1c1.7,1.7,2.6,4.1,2.6,7v0.1c0,4.9-2.7,8-6.5,9.5l7.5,10.9h-7.9l-6.5-9.8
		h-0.1h-5.2v9.8h-6.7C135.4,38.4,135.4,7.9,135.4,7.9z M148.9,22.7c3.3,0,5.1-1.7,5.1-4.3v-0.1c0-2.9-2-4.4-5.3-4.4h-6.7v8.8H148.9z
		"/>
	<polygon className="st1" points="166.9,7.9 190,7.9 190,13.9 173.6,13.9 173.6,20.1 188,20.1 188,26.1 173.6,26.1 173.6,32.5 
		190.2,32.5 190.2,38.4 166.9,38.4 	"/>
	<polygon className="st1" points="196.2,7.9 202.9,7.9 202.9,21.3 215.3,7.9 223.4,7.9 211,20.9 224,38.4 215.9,38.4 206.4,25.4 
		202.9,29.1 202.9,38.4 196.2,38.4 	"/>
	<path className="st1" d="M238.5,7.7h6.2l13.1,30.8h-7l-2.8-6.8H235l-2.8,6.8h-6.9L238.5,7.7z M245.6,25.7l-4.1-9.9l-4.1,9.9H245.6z"/>
	<path className="st1" d="M73.1,43.7h9.6c5.8,0,9.6,3.1,9.6,8.1v0.1c0,5.5-4.6,8.4-10.1,8.4H76v9h-2.9C73.1,69.3,73.1,43.7,73.1,43.7z
		 M82.3,57.6c4.2,0,7-2.3,7-5.6v-0.1c0-3.7-2.7-5.6-6.9-5.6H76v11.3H82.3z"/>
	<path className="st1" d="M107.1,43.5h2.7l11.7,25.8h-3.1l-3-6.8h-14l-3,6.8h-3L107.1,43.5z M114.2,59.9l-5.8-13l-5.9,13H114.2z"/>
	<path className="st1" d="M126.5,43.7h11c3.2,0,5.7,0.9,7.3,2.6c1.2,1.2,2,3,2,5.1v0.1c0,4.2-2.9,6.7-7,7.5l7.9,10.5h-3.6l-7.4-10h-7.3
		v10h-2.9L126.5,43.7L126.5,43.7z M137.3,56.7c3.8,0,6.6-2,6.6-5.3v-0.1c0-3.1-2.4-5.1-6.6-5.1h-7.9v10.4L137.3,56.7L137.3,56.7z"/>
	<polygon className="st1" points="153,43.7 155.9,43.7 155.9,59 170.6,43.7 174.3,43.7 163.4,54.9 174.8,69.3 171.2,69.3 161.3,56.9 
		155.9,62.4 155.9,69.3 153,69.3 	"/>
</g>
</svg>
